<?xml version="1.0" encoding="utf-8"?>
<!-- Generator: Adobe Illustrator 16.0.0, SVG Export Plug-In . SVG Version: 6.00 Build 0)  -->
<!DOCTYPE svg PUBLIC "-//W3C//DTD SVG 1.1//EN" "http://www.w3.org/Graphics/SVG/1.1/DTD/svg11.dtd">
<svg version="1.1" id="Layer_1" xmlns="http://www.w3.org/2000/svg" xmlns:xlink="http://www.w3.org/1999/xlink" x="0px" y="0px"
	 width="125.109px" height="151.355px" viewBox="0 0 125.109 151.355" enable-background="new 0 0 125.109 151.355"
	 xml:space="preserve">
<g>
	<path opacity="0.1" fill="#010101" d="M5.083,132.076c0,0-0.649,12.311,20.896,12.311c21.544,0,44.229,0,44.229,0
		s11.495,12.312,14.572,9.072c3.077-3.24,9.395-10.311,16.361-10.42c6.965-0.11,25.271,1.996,25.432-9.182
		c0.163-11.177,1.619-115.552,1.619-115.552s0.434-12.419-16.413-12.419C94.933,5.886,5.083,132.076,5.083,132.076z"/>
	<path fill="#FFFFFF" d="M121.068,130.617c0,4.295-3.48,7.777-7.775,7.777H96.121l-12.384,7.775l-11.867-7.775H12.535
		c-4.295,0-7.775-3.482-7.775-7.777V12.042c0-4.294,3.48-7.775,7.775-7.775h100.758c4.295,0,7.775,3.481,7.775,7.775V130.617z"/>
	<g>
		<path fill="#F3F3F3" d="M15.559,11.213c0-2.16,0.846-4.118,2.218-5.586h-3.945c-4.294,0-7.775,3.453-7.775,7.712v117.618
			c0,4.258,3.481,7.713,7.775,7.713h1.979c-0.158-0.635-0.251-1.293-0.251-1.977V11.213z"/>
	</g>
	<path fill="#8D191B" d="M26.481,87.447c0,0-13.945-0.729-14.543,8.969c-0.597,9.697,10.758,35.396,56.179,34.183
		c45.421-1.212,47.014-27.273,46.817-38.668c0,0,0.796-4.146-9.365-4.496C95.41,87.083,26.481,87.447,26.481,87.447z"/>
	<path fill="#791214" d="M26.62,94.076c0.15-2.911,1.15-5.033,2.559-6.58c-1.721,0.008-2.697,0.014-2.697,0.014
		s-13.945-0.727-14.543,8.971c-0.525,8.521,8.188,29.401,41.141,33.511C32.13,121.136,26.183,102.519,26.62,94.076z"/>
	<path fill="#FFFFFF" d="M55.195,89.928h7.991l-0.164,5.408c0,0-0.536,1.76-3.831,1.76s-3.996-1.76-3.996-1.76V89.928z"/>
	<path fill="#FFFFFF" d="M64.73,89.928h7.993l-0.168,5.408c0,0-0.534,1.76-3.829,1.76s-3.996-1.76-3.996-1.76V89.928z"/>
	<path fill="#FFFFFF" d="M70.589,129.263h-5.644l0.116-3.819c0,0,0.38-1.244,2.706-1.244s2.821,1.244,2.821,1.244V129.263z"/>
	<path fill="#FFFFFF" d="M63.632,129.263h-7.991l0.165-5.409c0,0,0.535-1.76,3.829-1.76c3.295,0,3.997,1.76,3.997,1.76V129.263z"/>
	<path fill="#791214" d="M114.958,91.891c0,0,0.796-4.146-9.364-4.496c-1.503-0.053-4.303-0.089-7.968-0.113
		c7.667,2.843,15.238,9.338,13.375,24.07C114.798,104.238,115.042,96.738,114.958,91.891z"/>
	<g>
		<circle fill="#FFFFFF" cx="54.688" cy="24.164" r="4.964"/>
		<path fill="#D31E49" d="M54.687,30.424c-3.451,0-6.259-2.809-6.259-6.26c0-3.452,2.808-6.26,6.259-6.26
			c3.453,0,6.26,2.808,6.26,6.26C60.947,27.615,58.14,30.424,54.687,30.424z M54.687,20.496c-2.022,0-3.667,1.646-3.667,3.668
			s1.645,3.668,3.667,3.668c2.023,0,3.67-1.646,3.67-3.668S56.71,20.496,54.687,20.496z"/>
	</g>
	<g>
		<circle fill="#FFFFFF" cx="74.068" cy="20.71" r="8.993"/>
		<path fill="#D31E49" d="M74.068,30.999c-5.674,0-10.287-4.615-10.287-10.289c0-5.673,4.613-10.289,10.287-10.289
			c5.673,0,10.288,4.616,10.288,10.289C84.356,26.384,79.741,30.999,74.068,30.999z M74.068,13.014
			c-4.244,0-7.696,3.453-7.696,7.697c0,4.245,3.452,7.697,7.696,7.697c4.245,0,7.697-3.453,7.697-7.697
			C81.765,16.466,78.313,13.014,74.068,13.014z"/>
	</g>
	<g>
		<circle fill="#D31E49" cx="54.922" cy="24.963" r="1.484"/>
		<path fill="#D31E49" d="M54.922,27.096c-1.175,0-2.132-0.957-2.132-2.133c0-1.174,0.957-2.13,2.132-2.13s2.132,0.956,2.132,2.13
			C57.054,26.139,56.097,27.096,54.922,27.096z M54.922,24.129c-0.461,0-0.835,0.374-0.835,0.834c0,0.461,0.374,0.837,0.835,0.837
			s0.836-0.375,0.836-0.837C55.758,24.503,55.383,24.129,54.922,24.129z"/>
	</g>
	<g id="eye">
		<circle fill="#D31E49" cx="74.536" cy="24.919" r="2.212" stroke="#D31E49" stroke-width="2"/>
	</g>
	<g>
		<path fill="#8D191B" d="M24.696,41.764l4.095,2.962l-2.107,2.882l-4.87-3.519l0.099,3.201l-3.557,0.099
			c-0.08-2.411-0.156-4.796-0.229-7.156c-0.073-2.357-0.156-4.736-0.249-7.135c0.834-0.026,1.7-0.05,2.593-0.07
			c0.895-0.02,1.752,0.046,2.575,0.198c0.821,0.152,1.563,0.432,2.226,0.835c0.663,0.405,1.186,1.011,1.571,1.819
			c0.251,0.557,0.373,1.115,0.368,1.679c-0.008,0.563-0.117,1.103-0.329,1.62c-0.212,0.517-0.506,0.997-0.884,1.441
			C25.62,41.066,25.186,41.446,24.696,41.764z M21.595,36.616l0.08,2.644c0.304-0.08,0.593-0.195,0.865-0.349
			c0.271-0.152,0.5-0.321,0.686-0.506c0.185-0.185,0.311-0.377,0.377-0.577c0.065-0.198,0.047-0.38-0.06-0.546
			c-0.106-0.166-0.314-0.308-0.625-0.427C22.606,36.736,22.165,36.657,21.595,36.616z"/>
		<path fill="#8D191B" d="M38.092,33.536l-0.02,3.578l-5.267-0.059v1.75l5.446,0.04l-0.02,3.577l-5.426-0.04l0.02,1.868l5.446,0.041
			l-0.04,3.559c-1.524-0.027-3.021-0.038-4.492-0.03c-1.471,0.006-2.963,0.009-4.473,0.009l-0.02-14.332
			c1.47,0,2.941,0.003,4.413,0.011C35.131,33.512,36.609,33.522,38.092,33.536z"/>
		<path fill="#8D191B" d="M42.744,33.794l3.557-0.099l3.996,12.999l-3.398,1.093l-0.577-1.81l-3.539,0.081l-0.596,2.007
			l-3.418-1.053L42.744,33.794z M44.533,40.433l-0.636,2.027l1.272-0.02L44.533,40.433z"/>
		<path fill="#8D191B" d="M57.294,38.227c-0.081-0.398-0.233-0.729-0.458-0.994c-0.226-0.265-0.477-0.457-0.755-0.576
			c-0.146-0.054-0.297-0.089-0.448-0.11c-0.152-0.02-0.303-0.016-0.446,0.01c-0.317,0.027-0.604,0.146-0.854,0.358
			c-0.386,0.292-0.696,0.745-0.936,1.361c-0.237,0.616-0.357,1.421-0.357,2.416c0,0.755,0.066,1.404,0.199,1.948
			c0.132,0.543,0.312,1,0.537,1.37c0.237,0.385,0.516,0.631,0.833,0.736c0.292,0.119,0.61,0.119,0.955,0
			c0.61-0.186,1.253-0.683,1.929-1.491l2.763,2.246c-0.556,0.689-1.14,1.253-1.75,1.69c-0.608,0.437-1.225,0.755-1.848,0.954h-0.021
			c-1.151,0.358-2.251,0.338-3.299-0.059c-1.043-0.411-1.893-1.133-2.552-2.167c-0.408-0.635-0.727-1.392-0.958-2.266
			c-0.231-0.875-0.345-1.862-0.345-2.961c0-1.617,0.249-2.968,0.75-4.055c0.5-1.086,1.133-1.928,1.897-2.524
			c0.396-0.305,0.812-0.55,1.249-0.736c0.436-0.185,0.887-0.311,1.35-0.377c0.927-0.118,1.816-0.006,2.664,0.338
			c0.794,0.317,1.501,0.826,2.116,1.52c0.615,0.696,1.038,1.555,1.264,2.575L57.294,38.227z"/>
		<path fill="#8D191B" d="M60.991,33.337h10.813v3.578h-3.659v10.554h-3.598V36.915h-3.557V33.337z"/>
		<path fill="#8D191B" d="M76.197,47.469l-3.559,0.061l-0.159-13.914l3.578-0.041L76.197,47.469z"/>
		<path fill="#8D191B" d="M87.685,35.98c0.172,0.397,0.294,0.799,0.367,1.202c0.073,0.405,0.122,0.802,0.148,1.193
			c0.025,0.39,0.034,0.774,0.021,1.152c-0.013,0.379-0.026,0.739-0.039,1.083c-0.028,0.464-0.061,0.961-0.1,1.491
			c-0.04,0.53-0.12,1.061-0.238,1.59c-0.12,0.53-0.299,1.041-0.537,1.531c-0.239,0.49-0.563,0.928-0.973,1.312
			c-0.414,0.385-0.93,0.69-1.553,0.915c-0.623,0.225-1.377,0.338-2.264,0.338c-1.313,0-2.354-0.216-3.121-0.646
			c-0.77-0.43-1.356-0.994-1.76-1.689c-0.406-0.695-0.663-1.487-0.775-2.375s-0.169-1.802-0.169-2.743
			c0-0.98,0.093-1.911,0.278-2.793c0.186-0.881,0.514-1.656,0.982-2.325c0.472-0.669,1.098-1.199,1.879-1.591
			c0.782-0.391,1.77-0.585,2.963-0.585c0.688,0,1.294,0.076,1.817,0.228s0.985,0.357,1.381,0.617
			c0.397,0.258,0.731,0.569,1.004,0.935C87.27,35.182,87.5,35.57,87.685,35.98z M84.625,39.956c0.023-0.438,0.039-0.857,0.039-1.262
			c0-0.404-0.057-0.762-0.169-1.073c-0.114-0.311-0.303-0.557-0.566-0.735c-0.265-0.179-0.644-0.269-1.133-0.269
			c-0.584,0-1.041,0.087-1.372,0.259c-0.33,0.172-0.579,0.417-0.745,0.735c-0.167,0.318-0.272,0.708-0.318,1.173
			s-0.069,0.981-0.069,1.551c0,0.662,0.007,1.239,0.02,1.729c0.014,0.49,0.091,0.894,0.228,1.212
			c0.141,0.317,0.359,0.553,0.656,0.705c0.299,0.153,0.739,0.229,1.324,0.229c0.528,0,0.936-0.151,1.221-0.456
			c0.285-0.306,0.49-0.676,0.615-1.113c0.128-0.438,0.199-0.902,0.22-1.392C84.595,40.757,84.611,40.326,84.625,39.956z"/>
		<path fill="#8D191B" d="M95.854,39.737l0.178-6.599l3.559,0.079l-0.339,13.854l-3.557-0.099l-3.021-5.646l-0.021,6.361h-3.558
			l0.02-13.934h3.559L95.854,39.737z"/>
		<path fill="#8D191B" d="M103.764,43.057c0.026,0.186,0.059,0.384,0.1,0.596c0.04,0.212,0.118,0.391,0.238,0.537
			c0.079,0.106,0.234,0.192,0.468,0.259c0.23,0.066,0.559,0.086,0.983,0.059c0.186-0.012,0.354-0.059,0.506-0.139
			c0.151-0.079,0.282-0.172,0.389-0.278c0.277-0.291,0.403-0.596,0.377-0.914c0-0.318-0.094-0.549-0.278-0.695
			c-0.227-0.213-0.617-0.325-1.172-0.338c-0.304-0.026-0.613-0.052-0.925-0.079c-0.313-0.027-0.62-0.08-0.924-0.159
			c-0.384-0.08-0.756-0.207-1.112-0.378c-0.358-0.173-0.69-0.411-0.995-0.716c-0.397-0.384-0.709-0.808-0.934-1.272
			c-0.226-0.463-0.364-0.94-0.419-1.431c-0.065-0.689,0.021-1.338,0.26-1.948c0.237-0.648,0.615-1.218,1.133-1.71
			c0.425-0.384,0.918-0.701,1.48-0.954c0.563-0.252,1.203-0.417,1.918-0.497c0.504-0.04,0.962-0.04,1.371,0
			c0.665,0.067,1.24,0.219,1.729,0.458c0.49,0.239,0.908,0.53,1.252,0.875c0.346,0.371,0.605,0.774,0.786,1.212
			c0.179,0.438,0.295,0.895,0.348,1.372c0.041,0.397,0.041,0.794,0,1.192l-3.579-0.337c0.026-0.16,0.026-0.332,0-0.517
			c-0.025-0.264-0.098-0.458-0.218-0.577c-0.131-0.159-0.352-0.246-0.656-0.259c-0.173-0.013-0.397-0.013-0.675,0
			c-0.279,0.026-0.521,0.086-0.727,0.179c-0.205,0.093-0.373,0.199-0.507,0.319c-0.065,0.053-0.122,0.116-0.169,0.188
			c-0.047,0.073-0.082,0.142-0.108,0.208c-0.065,0.146-0.087,0.298-0.061,0.458c0.026,0.106,0.062,0.215,0.111,0.327
			c0.044,0.113,0.122,0.222,0.227,0.328c0.04,0.066,0.166,0.12,0.378,0.158c0.146,0.027,0.324,0.05,0.536,0.071
			c0.212,0.019,0.439,0.043,0.677,0.069c0.716,0.027,1.352,0.146,1.909,0.358c0.555,0.212,1.046,0.49,1.471,0.834
			c0.94,0.795,1.424,1.842,1.45,3.141c0.026,0.596-0.077,1.186-0.31,1.769c-0.23,0.583-0.558,1.1-0.983,1.55
			c-0.422,0.438-0.914,0.795-1.469,1.073c-0.558,0.278-1.183,0.443-1.869,0.497c-1.141,0.066-2.071-0.063-2.794-0.387
			c-0.722-0.325-1.294-0.739-1.719-1.243c-0.397-0.503-0.666-1.02-0.805-1.55c-0.139-0.531-0.229-1.014-0.269-1.452L103.764,43.057z
			"/>
	</g>
	<g>
		<path fill="#8D191B" d="M32.378,68.014l8.723,6.309l-4.488,6.141l-10.374-7.495l0.212,6.816l-7.579,0.212
			c-0.169-5.138-0.332-10.218-0.488-15.243c-0.156-5.024-0.332-10.091-0.529-15.201c1.779-0.055,3.621-0.105,5.526-0.147
			c1.905-0.042,3.733,0.099,5.483,0.423c1.75,0.324,3.331,0.917,4.743,1.778c1.411,0.861,2.525,2.153,3.345,3.874
			c0.535,1.186,0.796,2.379,0.783,3.578c-0.015,1.201-0.248,2.351-0.698,3.451c-0.453,1.101-1.081,2.125-1.885,3.07
			C34.348,66.526,33.423,67.336,32.378,68.014z M25.774,57.047l0.168,5.632c0.649-0.169,1.263-0.416,1.842-0.741
			c0.578-0.324,1.066-0.684,1.462-1.08c0.394-0.394,0.662-0.804,0.803-1.227c0.142-0.423,0.099-0.812-0.127-1.165
			s-0.671-0.656-1.334-0.911C27.925,57.301,26.987,57.132,25.774,57.047z"/>
		<path fill="#8D191B" d="M49.653,51.035l7.581-0.211l8.511,27.691l-7.24,2.329l-1.229-3.854l-7.537,0.17l-1.269,4.275l-7.284-2.244
			L49.653,51.035z M53.464,65.177l-1.355,4.318l2.711-0.041L53.464,65.177z"/>
		<path fill="#8D191B" d="M80.648,60.478c-0.17-0.847-0.493-1.552-0.974-2.118c-0.479-0.563-1.017-0.973-1.609-1.227
			c-0.31-0.113-0.629-0.191-0.953-0.233c-0.323-0.042-0.642-0.035-0.952,0.021c-0.679,0.057-1.285,0.311-1.819,0.762
			c-0.82,0.622-1.482,1.588-1.99,2.901c-0.509,1.313-0.764,3.027-0.764,5.145c0,1.608,0.142,2.992,0.424,4.149
			c0.281,1.158,0.662,2.132,1.145,2.921c0.507,0.82,1.1,1.342,1.776,1.567c0.622,0.253,1.299,0.253,2.032,0
			c1.298-0.395,2.668-1.453,4.107-3.175l5.886,4.784c-1.184,1.469-2.429,2.669-3.725,3.599c-1.301,0.932-2.612,1.609-3.938,2.032
			H79.25c-2.456,0.763-4.797,0.721-7.029-0.126c-2.219-0.875-4.032-2.414-5.435-4.616c-0.871-1.354-1.55-2.963-2.041-4.827
			c-0.49-1.862-0.737-3.965-0.737-6.309c0-3.444,0.534-6.324,1.6-8.637c1.066-2.315,2.413-4.108,4.041-5.378
			c0.843-0.65,1.729-1.171,2.659-1.567c0.931-0.395,1.89-0.662,2.879-0.804c1.975-0.254,3.864-0.014,5.671,0.72
			c1.695,0.677,3.198,1.758,4.512,3.24c1.313,1.481,2.208,3.309,2.688,5.482L80.648,60.478z"/>
		<path fill="#8D191B" d="M107.832,50.484l-0.042,7.622l-11.221-0.126v3.727l11.601,0.083l-0.041,7.621l-11.56-0.084l0.041,3.98
			l11.604,0.085l-0.085,7.58c-3.247-0.057-6.438-0.078-9.57-0.064c-3.134,0.014-6.309,0.021-9.526,0.021L88.988,50.4
			c3.134,0,6.268,0.007,9.401,0.021C101.523,50.436,104.669,50.457,107.832,50.484z"/>
	</g>
	<g>
		<path fill="#DA4050" d="M27.206,37.575c0.007-0.564-0.116-1.123-0.368-1.679c-0.385-0.809-0.908-1.414-1.569-1.819
			c-0.664-0.405-1.405-0.683-2.227-0.834c-0.822-0.152-1.68-0.219-2.574-0.199c-0.895,0.02-1.759,0.043-2.594,0.07
			c0.092,2.359,0.173,4.7,0.244,7.021c1.854-0.038,4.726-0.091,8.348-0.148c0.159-0.255,0.301-0.518,0.413-0.792
			C27.09,38.677,27.2,38.138,27.206,37.575z M23.599,37.843c-0.066,0.199-0.193,0.391-0.376,0.577
			c-0.187,0.186-0.416,0.354-0.687,0.506c-0.271,0.153-0.56,0.269-0.865,0.349l-0.079-2.645c0.568,0.04,1.01,0.12,1.322,0.239
			c0.311,0.12,0.519,0.262,0.625,0.428C23.645,37.462,23.665,37.645,23.599,37.843z"/>
		<path fill="#DA4050" d="M32.802,38.817v-1.749l5.267,0.06l0.02-3.578c-1.485-0.014-2.962-0.023-4.433-0.029
			c-1.472-0.008-2.942-0.01-4.412-0.01l0.008,6.432c2.71-0.04,5.737-0.08,8.991-0.117l0.004-0.968L32.802,38.817z"/>
		<path fill="#DA4050" d="M42.74,33.808l-1.801,5.988c2.316-0.023,4.731-0.044,7.211-0.062l-1.853-6.025L42.74,33.808z"/>
		<path fill="#DA4050" d="M54.329,36.929c0.251-0.212,0.535-0.331,0.854-0.358c0.145-0.026,0.294-0.03,0.446-0.01
			c0.152,0.02,0.303,0.056,0.447,0.109c0.279,0.119,0.53,0.312,0.756,0.577c0.226,0.265,0.377,0.596,0.458,0.994l3.478-0.795
			c-0.227-1.02-0.646-1.878-1.262-2.574c-0.617-0.695-1.323-1.203-2.116-1.521c-0.849-0.345-1.738-0.457-2.664-0.338
			c-0.464,0.067-0.915,0.193-1.353,0.378c-0.435,0.186-0.851,0.431-1.247,0.736c-0.764,0.596-1.396,1.438-1.898,2.524
			c-0.396,0.858-0.627,1.886-0.711,3.074c1.179-0.008,2.369-0.014,3.571-0.021c0.056-0.544,0.153-1.022,0.306-1.414
			C53.632,37.673,53.943,37.221,54.329,36.929z"/>
		<path fill="#DA4050" d="M71.8,36.929v-3.579H60.987v3.579h3.558v2.754c1.198,0.002,2.398,0.005,3.597,0.01v-2.764H71.8z"/>
		<path fill="#DA4050" d="M72.475,33.629l0.069,6.088c1.195,0.009,2.387,0.019,3.569,0.03l-0.061-6.158L72.475,33.629z"/>
		<path fill="#DA4050" d="M88.196,38.389c-0.025-0.39-0.074-0.788-0.146-1.193c-0.076-0.403-0.198-0.804-0.37-1.202
			c-0.184-0.411-0.413-0.798-0.686-1.162c-0.271-0.365-0.605-0.676-1.004-0.935c-0.397-0.258-0.857-0.463-1.381-0.616
			s-1.129-0.229-1.817-0.229c-1.194,0-2.181,0.195-2.963,0.587c-0.78,0.39-1.408,0.921-1.878,1.59
			c-0.469,0.669-0.798,1.445-0.983,2.325c-0.148,0.702-0.235,1.436-0.265,2.2c1.208,0.012,2.407,0.027,3.595,0.043
			c0.01-0.354,0.026-0.693,0.059-1c0.046-0.464,0.152-0.854,0.316-1.173c0.168-0.318,0.415-0.563,0.748-0.735
			c0.329-0.172,0.787-0.259,1.371-0.259c0.49,0,0.866,0.09,1.134,0.269c0.264,0.178,0.451,0.424,0.563,0.735
			c0.113,0.312,0.17,0.669,0.17,1.074c0,0.372-0.014,0.761-0.037,1.16c1.213,0.023,2.404,0.048,3.581,0.076
			c0.006-0.135,0.009-0.261,0.015-0.401C88.231,39.164,88.223,38.78,88.196,38.389z"/>
		<path fill="#DA4050" d="M96.029,33.152l-0.179,6.599l-3.182-5.982H89.11l-0.009,6.196c3.668,0.092,7.14,0.207,10.313,0.354
			l0.172-7.086L96.029,33.152z"/>
		<path fill="#DA4050" d="M108.949,39.93c-0.424-0.344-0.916-0.623-1.473-0.834c-0.556-0.212-1.191-0.332-1.907-0.358
			c-0.24-0.026-0.465-0.05-0.675-0.069c-0.214-0.021-0.393-0.044-0.536-0.07c-0.214-0.04-0.338-0.093-0.38-0.159
			c-0.104-0.106-0.182-0.215-0.229-0.328c-0.045-0.112-0.083-0.221-0.109-0.328c-0.027-0.16-0.007-0.312,0.061-0.458
			c0.026-0.066,0.062-0.136,0.109-0.209c0.046-0.072,0.103-0.135,0.168-0.188c0.134-0.12,0.303-0.226,0.509-0.319
			c0.205-0.092,0.444-0.152,0.725-0.179c0.277-0.014,0.504-0.014,0.676,0c0.304,0.013,0.523,0.1,0.654,0.258
			c0.12,0.119,0.192,0.312,0.219,0.577c0.028,0.185,0.028,0.357,0,0.517l3.578,0.337c0.04-0.397,0.04-0.795,0-1.192
			c-0.052-0.477-0.168-0.935-0.349-1.373c-0.178-0.438-0.438-0.841-0.784-1.212c-0.345-0.344-0.762-0.636-1.254-0.875
			c-0.489-0.238-1.065-0.391-1.728-0.458c-0.411-0.04-0.869-0.04-1.371,0c-0.716,0.081-1.355,0.246-1.918,0.498
			c-0.563,0.251-1.057,0.569-1.479,0.953c-0.519,0.49-0.896,1.062-1.135,1.709c-0.237,0.61-0.324,1.259-0.258,1.948
			c0.054,0.49,0.192,0.967,0.418,1.431c0.145,0.298,0.328,0.579,0.547,0.845c3.371,0.172,6.365,0.382,8.84,0.637
			C109.637,40.625,109.333,40.255,108.949,39.93z"/>
		<path fill="#DA4050" d="M37.731,59.072c0.013-1.199-0.248-2.392-0.784-3.578c-0.819-1.721-1.933-3.013-3.345-3.873
			c-1.412-0.862-2.993-1.455-4.742-1.779c-1.751-0.325-3.579-0.466-5.482-0.424c-1.906,0.042-3.749,0.092-5.526,0.148
			c0.135,3.522,0.258,7.016,0.375,10.498c2.008,0.523,4.606,1.161,7.688,1.832l-0.145-4.835c1.213,0.085,2.152,0.255,2.816,0.508
			c0.663,0.254,1.107,0.558,1.333,0.911c0.226,0.354,0.269,0.741,0.127,1.165c-0.141,0.423-0.409,0.833-0.804,1.227
			c-0.396,0.396-0.883,0.756-1.461,1.081c-0.16,0.09-0.331,0.16-0.495,0.237c2.708,0.571,5.743,1.158,9.056,1.714
			c0.261-0.446,0.495-0.905,0.691-1.38C37.483,61.423,37.716,60.272,37.731,59.072z"/>
		<path fill="#DA4050" d="M49.649,51.049l-4.265,14.182c2.507,0.314,5.115,0.597,7.801,0.833l0.274-0.874l0.293,0.922
			c2.705,0.231,5.488,0.415,8.335,0.536l-4.857-15.812L49.649,51.049z"/>
		<path fill="#DA4050" d="M72.346,60.597c0.506-1.313,1.169-2.279,1.989-2.9c0.535-0.451,1.142-0.706,1.819-0.762
			c0.311-0.057,0.631-0.064,0.952-0.022c0.325,0.042,0.643,0.12,0.954,0.233c0.593,0.253,1.13,0.664,1.607,1.228
			c0.48,0.565,0.806,1.271,0.976,2.117l7.41-1.693c-0.48-2.173-1.377-4.001-2.688-5.483c-1.313-1.481-2.816-2.562-4.511-3.239
			c-1.807-0.734-3.698-0.974-5.673-0.72c-0.988,0.142-1.946,0.41-2.878,0.804c-0.93,0.396-1.815,0.917-2.658,1.567
			c-1.629,1.27-2.976,3.063-4.042,5.377c-1.067,2.314-1.601,5.194-1.601,8.638c0,0.334,0.018,0.653,0.026,0.979
			c2.486,0.08,5.015,0.108,7.576,0.081c-0.015-0.343-0.023-0.695-0.023-1.061C71.583,63.625,71.837,61.909,72.346,60.597z"/>
		<path fill="#DA4050" d="M96.563,61.72v-3.727l11.223,0.127l0.041-7.622c-3.161-0.027-6.308-0.048-9.441-0.063
			c-3.134-0.014-6.267-0.021-9.4-0.021l0.021,15.237c6.284-0.794,12.586-2.034,18.75-3.85L96.563,61.72z"/>
	</g>
	<g>
		<path fill="#FFFFFF" d="M19.647,34.52c1.455-0.242,3.669,0.017,4.874,0.932c0.416,0.316,0.818-0.388,0.408-0.699
			c-1.378-1.048-3.838-1.29-5.496-1.013C18.918,33.826,19.137,34.606,19.647,34.52L19.647,34.52z"/>
	</g>
	<g>
		<path fill="#FFFFFF" d="M25.541,35.958c0.522,0,0.522-0.81,0-0.81S25.018,35.958,25.541,35.958L25.541,35.958z"/>
	</g>
	<g>
		<path fill="#FFFFFF" d="M30.11,40.174c0,0.738,0,1.476,0,2.213c0,0.522,0.811,0.522,0.811,0c0-0.737,0-1.475,0-2.213
			C30.92,39.652,30.11,39.652,30.11,40.174L30.11,40.174z"/>
	</g>
	<g>
		<path fill="#FFFFFF" d="M30.515,39.391c0.522,0,0.522-0.81,0-0.81C29.994,38.581,29.994,39.391,30.515,39.391L30.515,39.391z"/>
	</g>
	<g>
		<path fill="#FFFFFF" d="M45.744,36.255c0.241,0.926,0.477,1.853,0.648,2.794c0.092,0.513,0.872,0.295,0.78-0.215
			c-0.169-0.942-0.407-1.869-0.648-2.794C46.394,35.534,45.612,35.749,45.744,36.255L45.744,36.255z"/>
	</g>
	<g>
		<path fill="#FFFFFF" d="M46.985,40.805c0.522,0,0.522-0.81,0-0.81C46.462,39.995,46.462,40.805,46.985,40.805L46.985,40.805z"/>
	</g>
	<g>
		<path fill="#FFFFFF" d="M51.973,43.76c0.229,2.613,3.801,4.34,5.477,1.905c0.299-0.432-0.405-0.836-0.698-0.409
			c-1.202,1.749-3.813,0.298-3.97-1.497C52.737,43.244,51.926,43.24,51.973,43.76L51.973,43.76z"/>
	</g>
	<g>
		<path fill="#FFFFFF" d="M52.114,42.686c0.522,0,0.522-0.811,0-0.811S51.591,42.686,52.114,42.686L52.114,42.686z"/>
	</g>
	<g>
		<path fill="#FFFFFF" d="M61.456,34.045c0,0.72,0,1.44,0,2.161c0,0.522,0.812,0.522,0.812,0c0-0.72,0-1.44,0-2.161
			C62.267,33.523,61.456,33.523,61.456,34.045L61.456,34.045z"/>
	</g>
	<g>
		<path fill="#FFFFFF" d="M67.084,37.328c0,0.63,0,1.26,0,1.89c0,0.522,0.811,0.522,0.811,0c0-0.63,0-1.26,0-1.89
			C67.895,36.806,67.084,36.806,67.084,37.328L67.084,37.328z"/>
	</g>
	<g>
		<path fill="#FFFFFF" d="M67.491,41.082c0.521,0,0.521-0.81,0-0.81S66.969,41.082,67.491,41.082L67.491,41.082z"/>
	</g>
	<g>
		<path fill="#FFFFFF" d="M74.766,34.801c0,1.476,0,2.952,0,4.427c0,0.523,0.809,0.523,0.809,0c0-1.476,0-2.951,0-4.427
			C75.575,34.278,74.766,34.278,74.766,34.801L74.766,34.801z"/>
	</g>
	<g>
		<path fill="#FFFFFF" d="M75.279,40.983c0.521,0,0.521-0.81,0-0.81C74.756,40.173,74.756,40.983,75.279,40.983L75.279,40.983z"/>
	</g>
	<g>
		<path fill="#FFFFFF" d="M79.062,40.146c-0.016,1.194-0.254,2.443,0.292,3.559c0.231,0.469,0.928,0.058,0.7-0.408
			c-0.466-0.948-0.196-2.138-0.183-3.151C79.879,39.623,79.069,39.624,79.062,40.146L79.062,40.146z"/>
	</g>
	<g>
		<path fill="#FFFFFF" d="M80.508,44.614c0.521,0,0.521-0.81,0-0.81C79.985,43.804,79.985,44.614,80.508,44.614L80.508,44.614z"/>
	</g>
	<g>
		<path fill="#FFFFFF" d="M84.567,34.864c0.806,0.111,1.517,0.967,1.66,1.742c0.095,0.512,0.876,0.294,0.782-0.215
			c-0.188-1.017-1.171-2.162-2.228-2.308C84.272,34.012,84.05,34.792,84.567,34.864L84.567,34.864z"/>
	</g>
	<g>
		<path fill="#FFFFFF" d="M97.933,34.524c0,1.634,0,3.267,0,4.9c0,0.522,0.811,0.522,0.811,0c0-1.634,0-3.267,0-4.9
			C98.744,34.002,97.933,34.002,97.933,34.524L97.933,34.524z"/>
	</g>
	<g>
		<path fill="#FFFFFF" d="M98.406,41.909c0.521,0,0.521-0.81,0-0.81S97.884,41.909,98.406,41.909L98.406,41.909z"/>
	</g>
	<g>
		<path fill="#FFFFFF" d="M104.717,35.647c0.541-0.073,1.107-0.144,1.644-0.029c0.629,0.135,0.787,0.681,0.801,1.258
			c0.014,0.522,0.822,0.523,0.81,0c-0.021-0.813-0.281-1.589-1.078-1.929c-0.748-0.32-1.61-0.187-2.39-0.081
			C103.986,34.936,104.208,35.717,104.717,35.647L104.717,35.647z"/>
	</g>
	<g>
		<path fill="#FFFFFF" d="M103.121,35.958c0.521,0,0.521-0.81,0-0.81S102.599,35.958,103.121,35.958L103.121,35.958z"/>
	</g>
	<g>
		<path fill="#FFFFFF" d="M102.73,43.832c0.055,0.396,0.124,0.803,0.357,1.137c0.281,0.405,0.729,0.548,1.202,0.578
			c0.524,0.032,0.52-0.778,0-0.81c-0.646-0.041-0.702-0.578-0.778-1.12c-0.03-0.219-0.306-0.335-0.497-0.283
			C102.78,43.398,102.701,43.613,102.73,43.832L102.73,43.832z"/>
	</g>
	<g>
		<path fill="#FFFFFF" d="M105.283,45.475c0.521,0,0.521-0.81,0-0.81S104.761,45.475,105.283,45.475L105.283,45.475z"/>
	</g>
	<g>
		<path fill="#FFFFFF" d="M22.952,51.768c2.963-0.466,6.125,0.119,8.422,2.13c0.783,0.685,1.933-0.456,1.145-1.145
			c-2.772-2.428-6.422-3.11-9.998-2.547C21.491,50.369,21.929,51.929,22.952,51.768L22.952,51.768z"/>
	</g>
	<g>
		<path fill="#FFFFFF" d="M33.47,55.305c1.045,0,1.045-1.62,0-1.62C32.425,53.685,32.425,55.305,33.47,55.305L33.47,55.305z"/>
	</g>
	<g>
		<path fill="#FFFFFF" d="M54.938,52.726c0.447,1.95,1.532,3.675,1.948,5.633c0.219,1.021,1.779,0.588,1.563-0.431
			c-0.417-1.959-1.5-3.684-1.948-5.633C56.266,51.276,54.705,51.709,54.938,52.726L54.938,52.726z"/>
	</g>
	<g>
		<path fill="#FFFFFF" d="M58.305,60.831c1.045,0,1.045-1.62,0-1.62S57.26,60.831,58.305,60.831L58.305,60.831z"/>
	</g>
	<g>
		<path fill="#FFFFFF" d="M69.428,71.821c0.609,1.852,1.186,3.567,2.816,4.757c1.807,1.319,4.509,0.818,6.379-0.022
			c0.953-0.426,0.128-1.822-0.816-1.398c-1.673,0.75-3.792,0.934-5.23-0.381c-0.908-0.831-1.216-2.263-1.588-3.386
			C70.666,70.404,69.099,70.826,69.428,71.821L69.428,71.821z"/>
	</g>
	<g>
		<path fill="#FFFFFF" d="M69.856,70.786c1.043,0,1.043-1.62,0-1.62C68.811,69.166,68.811,70.786,69.856,70.786L69.856,70.786z"/>
	</g>
	<g>
		<path fill="#FFFFFF" d="M90.69,66.611c0,1.807,0,3.614,0,5.42c0,1.045,1.621,1.045,1.621,0c0-1.807,0-3.614,0-5.42
			C92.311,65.566,90.69,65.566,90.69,66.611L90.69,66.611z"/>
	</g>
	<g>
		<path fill="#FFFFFF" d="M91.394,65.542c1.045,0,1.045-1.62,0-1.62C90.351,63.923,90.351,65.542,91.394,65.542L91.394,65.542z"/>
	</g>
	<g>
		<path fill="#FFFFFF" d="M18.666,41.208c-0.032,0.716,0.035,1.43,0.041,2.146c0.004,0.522,0.814,0.523,0.81,0
			c-0.006-0.716-0.071-1.429-0.041-2.146C19.5,40.685,18.689,40.687,18.666,41.208L18.666,41.208z"/>
	</g>
	<g>
		<path fill="#FFFFFF" d="M19.339,62.645c0.224,2.542-0.197,5.079,0.191,7.613c0.157,1.03,1.718,0.59,1.562-0.431
			c-0.364-2.379,0.077-4.791-0.133-7.182C20.869,61.613,19.248,61.604,19.339,62.645L19.339,62.645z"/>
	</g>
	<g>
		<path fill="#AD1E36" d="M119.449,130.617c-0.317,5.873-5.39,6.157-9.865,6.157c-4.023,0-8.047,0-12.068,0
			c-2.381,0-3.733,1.176-5.752,2.442c-2.947,1.852-5.897,3.703-8.844,5.554c0.544,0,1.089,0,1.635,0
			c-3.371-2.208-6.743-4.417-10.112-6.626c-1.725-1.129-2.539-1.37-4.524-1.37c-8.379,0-16.759,0-25.139,0
			c-9.284,0-18.566,0-27.85,0c-2.104,0-4.374,0.224-6.422-0.339c-3.373-0.928-4.129-4.295-4.129-7.274c0-34.649,0-69.299,0-103.948
			c0-4.315,0-8.63,0-12.945c0-7.124,7.07-6.382,11.92-6.382c18.506,0,37.011,0,55.519,0c13.159,0,26.316,0,39.476,0
			c7.35,0,6.156,8.41,6.156,13.277c0,7.747,0,15.492,0,23.237C119.449,71.808,119.449,101.213,119.449,130.617
			c0,2.09,3.238,2.09,3.238,0c0-32.309,0-64.618,0-96.927c0-6.296,0-12.591,0-18.887c0-0.92,0-1.841,0-2.762
			c0-5.178-4.342-9.395-9.483-9.395c-13.976,0-27.951,0-41.927,0c-18.068,0-36.133,0-54.199,0c-1.469,0-2.938,0-4.407,0
			c-4.714,0-9.223,3.671-9.485,8.548C2.992,14.782,3.14,18.404,3.14,21.994c0,35.215,0,70.43,0,105.645c0,0.992,0,1.983,0,2.975
			c0,5.177,4.333,9.4,9.477,9.4c6.484,0,12.967,0,19.451,0c10.095,0,20.191,0,30.288,0c2.875,0,5.75,0,8.624,0
			c0.248,0,0.495,0,0.743,0c0.566,0-1.123-0.518-0.396-0.04c1.798,1.177,3.594,2.354,5.39,3.53c2.066,1.354,4.135,2.71,6.203,4.064
			c0.467,0.306,1.168,0.293,1.635,0c3.111-1.953,6.223-3.907,9.334-5.861c0.776-0.486,1.552-0.973,2.326-1.459
			c0.898-0.564,0.617-0.234,0.032-0.234c1.569,0,3.141,0,4.713,0c4.02,0,8.037,0,12.057,0c5.427,0,9.384-4.08,9.671-9.396
			C122.799,128.529,119.559,128.54,119.449,130.617z"/>
	</g>
</g>
</svg>
