<svg xmlns="http://www.w3.org/2000/svg" width="125" height="151" viewBox="0 0 125.1 151.4">
    <path d="M5.1 132.1c0 0-0.6 12.3 20.9 12.3 21.5 0 44.2 0 44.2 0s11.5 12.3 14.6 9.1c3.1-3.2 9.4-10.3 16.4-10.4 7-0.1 25.3 2 25.4-9.2 0.2-11.2 1.6-115.6 1.6-115.6s0.4-12.4-16.4-12.4C94.9 5.9 5.1 132.1 5.1 132.1z" style="fill:#010101;opacity:0.1"/>
    <path d="M121.1 130.6c0 4.3-3.5 7.8-7.8 7.8H96.1l-12.4 7.8 -11.9-7.8H12.5c-4.3 0-7.8-3.5-7.8-7.8V12c0-4.3 3.5-7.8 7.8-7.8h100.8c4.3 0 7.8 3.5 7.8 7.8V130.6z" fill="#FFF"/>
      <path d="M15.6 11.2c0-2.2 0.8-4.1 2.2-5.6h-3.9c-4.3 0-7.8 3.5-7.8 7.7v117.6c0 4.3 3.5 7.7 7.8 7.7h2c-0.2-0.6-0.3-1.3-0.3-2V11.2z" fill="#F3F3F3"/>
    <path d="M26.5 87.4c0 0-13.9-0.7-14.5 9 -0.6 9.7 10.8 35.4 56.2 34.2 45.4-1.2 47-27.3 46.8-38.7 0 0 0.8-4.1-9.4-4.5C95.4 87.1 26.5 87.4 26.5 87.4z" fill="#8D191B"/>
    <path d="M26.6 94.1c0.2-2.9 1.2-5 2.6-6.6 -1.7 0-2.7 0-2.7 0s-13.9-0.7-14.5 9c-0.5 8.5 8.2 29.4 41.1 33.5C32.1 121.1 26.2 102.5 26.6 94.1z" fill="#791214"/>
    <path d="M55.2 89.9h8l-0.2 5.4c0 0-0.5 1.8-3.8 1.8s-4-1.8-4-1.8V89.9z" fill="#FFF"/>
    <path d="M64.7 89.9h8l-0.2 5.4c0 0-0.5 1.8-3.8 1.8s-4-1.8-4-1.8V89.9z" fill="#FFF"/>
    <path d="M70.6 129.3h-5.6l0.1-3.8c0 0 0.4-1.2 2.7-1.2s2.8 1.2 2.8 1.2V129.3z" fill="#FFF"/>
    <path d="M63.6 129.3h-8l0.2-5.4c0 0 0.5-1.8 3.8-1.8 3.3 0 4 1.8 4 1.8V129.3z" fill="#FFF"/>
    <path d="M115 91.9c0 0 0.8-4.1-9.4-4.5 -1.5-0.1-4.3-0.1-8-0.1 7.7 2.8 15.2 9.3 13.4 24.1C114.8 104.2 115 96.7 115 91.9z" fill="#791214"/>
      <circle cx="54.7" cy="24.2" r="5" fill="#FFF"/>
      <path d="M54.7 30.4c-3.5 0-6.3-2.8-6.3-6.3 0-3.5 2.8-6.3 6.3-6.3 3.5 0 6.3 2.8 6.3 6.3C60.9 27.6 58.1 30.4 54.7 30.4zM54.7 20.5c-2 0-3.7 1.6-3.7 3.7s1.6 3.7 3.7 3.7c2 0 3.7-1.6 3.7-3.7S56.7 20.5 54.7 20.5z" fill="#D31E49"/>
      <circle cx="74.1" cy="20.7" r="9" fill="#FFF"/>
      <path d="M74.1 31c-5.7 0-10.3-4.6-10.3-10.3 0-5.7 4.6-10.3 10.3-10.3 5.7 0 10.3 4.6 10.3 10.3C84.4 26.4 79.7 31 74.1 31zM74.1 13c-4.2 0-7.7 3.5-7.7 7.7 0 4.2 3.5 7.7 7.7 7.7 4.2 0 7.7-3.5 7.7-7.7C81.8 16.5 78.3 13 74.1 13z" fill="#D31E49"/>
      <circle cx="54.9" cy="25" r="1.5" fill="#D31E49"/>
      <path d="M54.9 27.1c-1.2 0-2.1-1-2.1-2.1 0-1.2 1-2.1 2.1-2.1s2.1 1 2.1 2.1C57.1 26.1 56.1 27.1 54.9 27.1zM54.9 24.1c-0.5 0-0.8 0.4-0.8 0.8 0 0.5 0.4 0.8 0.8 0.8s0.8-0.4 0.8-0.8C55.8 24.5 55.4 24.1 54.9 24.1z" fill="#D31E49"/>
      <circle id="leftEye" cx="70" cy="24.9" r="2.2" fill="#D31E49" stoke="#D31E49" stroke-width="2"/>
      <path d="M24.7 41.8l4.1 3 -2.1 2.9 -4.9-3.5 0.1 3.2 -3.6 0.1c-0.1-2.4-0.2-4.8-0.2-7.2 -0.1-2.4-0.2-4.7-0.2-7.1 0.8 0 1.7 0 2.6-0.1 0.9 0 1.8 0 2.6 0.2 0.8 0.2 1.6 0.4 2.2 0.8 0.7 0.4 1.2 1 1.6 1.8 0.3 0.6 0.4 1.1 0.4 1.7 0 0.6-0.1 1.1-0.3 1.6 -0.2 0.5-0.5 1-0.9 1.4C25.6 41.1 25.2 41.4 24.7 41.8zM21.6 36.6l0.1 2.6c0.3-0.1 0.6-0.2 0.9-0.3 0.3-0.2 0.5-0.3 0.7-0.5 0.2-0.2 0.3-0.4 0.4-0.6 0.1-0.2 0-0.4-0.1-0.5 -0.1-0.2-0.3-0.3-0.6-0.4C22.6 36.7 22.2 36.7 21.6 36.6z" fill="#8D191B"/>
      <path d="M38.1 33.5l0 3.6 -5.3-0.1v1.8l5.4 0 0 3.6 -5.4 0 0 1.9 5.4 0 0 3.6c-1.5 0-3 0-4.5 0 -1.5 0-3 0-4.5 0l0-14.3c1.5 0 2.9 0 4.4 0C35.1 33.5 36.6 33.5 38.1 33.5z" fill="#8D191B"/>
      <path d="M42.7 33.8l3.6-0.1 4 13 -3.4 1.1 -0.6-1.8 -3.5 0.1 -0.6 2 -3.4-1.1L42.7 33.8zM44.5 40.4l-0.6 2 1.3 0L44.5 40.4z" fill="#8D191B"/>
      <path d="M57.3 38.2c-0.1-0.4-0.2-0.7-0.5-1 -0.2-0.3-0.5-0.5-0.8-0.6 -0.1-0.1-0.3-0.1-0.4-0.1 -0.2 0-0.3 0-0.4 0 -0.3 0-0.6 0.1-0.9 0.4 -0.4 0.3-0.7 0.7-0.9 1.4 -0.2 0.6-0.4 1.4-0.4 2.4 0 0.8 0.1 1.4 0.2 1.9 0.1 0.5 0.3 1 0.5 1.4 0.2 0.4 0.5 0.6 0.8 0.7 0.3 0.1 0.6 0.1 1 0 0.6-0.2 1.3-0.7 1.9-1.5l2.8 2.2c-0.6 0.7-1.1 1.3-1.7 1.7 -0.6 0.4-1.2 0.8-1.8 1h0c-1.2 0.4-2.3 0.3-3.3-0.1 -1-0.4-1.9-1.1-2.6-2.2 -0.4-0.6-0.7-1.4-1-2.3 -0.2-0.9-0.3-1.9-0.3-3 0-1.6 0.2-3 0.8-4.1 0.5-1.1 1.1-1.9 1.9-2.5 0.4-0.3 0.8-0.5 1.2-0.7 0.4-0.2 0.9-0.3 1.4-0.4 0.9-0.1 1.8 0 2.7 0.3 0.8 0.3 1.5 0.8 2.1 1.5 0.6 0.7 1 1.6 1.3 2.6L57.3 38.2z" fill="#8D191B"/>
      <path d="M61 33.3h10.8v3.6h-3.7v10.6h-3.6V36.9h-3.6V33.3z" fill="#8D191B"/>
      <path d="M76.2 47.5l-3.6 0.1 -0.2-13.9 3.6 0L76.2 47.5z" fill="#8D191B"/>
      <path d="M87.7 36c0.2 0.4 0.3 0.8 0.4 1.2 0.1 0.4 0.1 0.8 0.1 1.2 0 0.4 0 0.8 0 1.2 0 0.4 0 0.7 0 1.1 0 0.5-0.1 1-0.1 1.5 0 0.5-0.1 1.1-0.2 1.6 -0.1 0.5-0.3 1-0.5 1.5 -0.2 0.5-0.6 0.9-1 1.3 -0.4 0.4-0.9 0.7-1.6 0.9 -0.6 0.2-1.4 0.3-2.3 0.3 -1.3 0-2.4-0.2-3.1-0.6 -0.8-0.4-1.4-1-1.8-1.7 -0.4-0.7-0.7-1.5-0.8-2.4s-0.2-1.8-0.2-2.7c0-1 0.1-1.9 0.3-2.8 0.2-0.9 0.5-1.7 1-2.3 0.5-0.7 1.1-1.2 1.9-1.6 0.8-0.4 1.8-0.6 3-0.6 0.7 0 1.3 0.1 1.8 0.2s1 0.4 1.4 0.6c0.4 0.3 0.7 0.6 1 0.9C87.3 35.2 87.5 35.6 87.7 36zM84.6 40c0-0.4 0-0.9 0-1.3 0-0.4-0.1-0.8-0.2-1.1 -0.1-0.3-0.3-0.6-0.6-0.7 -0.3-0.2-0.6-0.3-1.1-0.3 -0.6 0-1 0.1-1.4 0.3 -0.3 0.2-0.6 0.4-0.7 0.7 -0.2 0.3-0.3 0.7-0.3 1.2s-0.1 1-0.1 1.6c0 0.7 0 1.2 0 1.7 0 0.5 0.1 0.9 0.2 1.2 0.1 0.3 0.4 0.6 0.7 0.7 0.3 0.2 0.7 0.2 1.3 0.2 0.5 0 0.9-0.2 1.2-0.5 0.3-0.3 0.5-0.7 0.6-1.1 0.1-0.4 0.2-0.9 0.2-1.4C84.6 40.8 84.6 40.3 84.6 40z" fill="#8D191B"/>
      <path d="M95.9 39.7l0.2-6.6 3.6 0.1 -0.3 13.9 -3.6-0.1 -3-5.6 0 6.4h-3.6l0-13.9h3.6L95.9 39.7z" fill="#8D191B"/>
      <path d="M103.8 43.1c0 0.2 0.1 0.4 0.1 0.6 0 0.2 0.1 0.4 0.2 0.5 0.1 0.1 0.2 0.2 0.5 0.3 0.2 0.1 0.6 0.1 1 0.1 0.2 0 0.4-0.1 0.5-0.1 0.2-0.1 0.3-0.2 0.4-0.3 0.3-0.3 0.4-0.6 0.4-0.9 0-0.3-0.1-0.5-0.3-0.7 -0.2-0.2-0.6-0.3-1.2-0.3 -0.3 0-0.6-0.1-0.9-0.1 -0.3 0-0.6-0.1-0.9-0.2 -0.4-0.1-0.8-0.2-1.1-0.4 -0.4-0.2-0.7-0.4-1-0.7 -0.4-0.4-0.7-0.8-0.9-1.3 -0.2-0.5-0.4-0.9-0.4-1.4 -0.1-0.7 0-1.3 0.3-1.9 0.2-0.6 0.6-1.2 1.1-1.7 0.4-0.4 0.9-0.7 1.5-1 0.6-0.3 1.2-0.4 1.9-0.5 0.5 0 1 0 1.4 0 0.7 0.1 1.2 0.2 1.7 0.5 0.5 0.2 0.9 0.5 1.3 0.9 0.3 0.4 0.6 0.8 0.8 1.2 0.2 0.4 0.3 0.9 0.3 1.4 0 0.4 0 0.8 0 1.2l-3.6-0.3c0-0.2 0-0.3 0-0.5 0-0.3-0.1-0.5-0.2-0.6 -0.1-0.2-0.4-0.2-0.7-0.3 -0.2 0-0.4 0-0.7 0 -0.3 0-0.5 0.1-0.7 0.2 -0.2 0.1-0.4 0.2-0.5 0.3 -0.1 0.1-0.1 0.1-0.2 0.2 0 0.1-0.1 0.1-0.1 0.2 -0.1 0.1-0.1 0.3-0.1 0.5 0 0.1 0.1 0.2 0.1 0.3 0 0.1 0.1 0.2 0.2 0.3 0 0.1 0.2 0.1 0.4 0.2 0.1 0 0.3 0.1 0.5 0.1 0.2 0 0.4 0 0.7 0.1 0.7 0 1.4 0.1 1.9 0.4 0.6 0.2 1 0.5 1.5 0.8 0.9 0.8 1.4 1.8 1.5 3.1 0 0.6-0.1 1.2-0.3 1.8 -0.2 0.6-0.6 1.1-1 1.6 -0.4 0.4-0.9 0.8-1.5 1.1 -0.6 0.3-1.2 0.4-1.9 0.5 -1.1 0.1-2.1-0.1-2.8-0.4 -0.7-0.3-1.3-0.7-1.7-1.2 -0.4-0.5-0.7-1-0.8-1.5 -0.1-0.5-0.2-1-0.3-1.5L103.8 43.1z" fill="#8D191B"/>
      <path d="M32.4 68l8.7 6.3 -4.5 6.1 -10.4-7.5 0.2 6.8 -7.6 0.2c-0.2-5.1-0.3-10.2-0.5-15.2 -0.2-5-0.3-10.1-0.5-15.2 1.8-0.1 3.6-0.1 5.5-0.1 1.9 0 3.7 0.1 5.5 0.4 1.8 0.3 3.3 0.9 4.7 1.8 1.4 0.9 2.5 2.2 3.3 3.9 0.5 1.2 0.8 2.4 0.8 3.6 0 1.2-0.2 2.4-0.7 3.5 -0.5 1.1-1.1 2.1-1.9 3.1C34.3 66.5 33.4 67.3 32.4 68zM25.8 57l0.2 5.6c0.6-0.2 1.3-0.4 1.8-0.7 0.6-0.3 1.1-0.7 1.5-1.1 0.4-0.4 0.7-0.8 0.8-1.2 0.1-0.4 0.1-0.8-0.1-1.2s-0.7-0.7-1.3-0.9C27.9 57.3 27 57.1 25.8 57z" fill="#8D191B"/>
      <path d="M49.7 51l7.6-0.2 8.5 27.7 -7.2 2.3 -1.2-3.9 -7.5 0.2 -1.3 4.3 -7.3-2.2L49.7 51zM53.5 65.2l-1.4 4.3 2.7 0L53.5 65.2z" fill="#8D191B"/>
      <path d="M80.6 60.5c-0.2-0.8-0.5-1.6-1-2.1 -0.5-0.6-1-1-1.6-1.2 -0.3-0.1-0.6-0.2-1-0.2 -0.3 0-0.6 0-1 0 -0.7 0.1-1.3 0.3-1.8 0.8 -0.8 0.6-1.5 1.6-2 2.9 -0.5 1.3-0.8 3-0.8 5.1 0 1.6 0.1 3 0.4 4.1 0.3 1.2 0.7 2.1 1.1 2.9 0.5 0.8 1.1 1.3 1.8 1.6 0.6 0.3 1.3 0.3 2 0 1.3-0.4 2.7-1.5 4.1-3.2l5.9 4.8c-1.2 1.5-2.4 2.7-3.7 3.6 -1.3 0.9-2.6 1.6-3.9 2H79.3c-2.5 0.8-4.8 0.7-7-0.1 -2.2-0.9-4-2.4-5.4-4.6 -0.9-1.4-1.5-3-2-4.8 -0.5-1.9-0.7-4-0.7-6.3 0-3.4 0.5-6.3 1.6-8.6 1.1-2.3 2.4-4.1 4-5.4 0.8-0.6 1.7-1.2 2.7-1.6 0.9-0.4 1.9-0.7 2.9-0.8 2-0.3 3.9 0 5.7 0.7 1.7 0.7 3.2 1.8 4.5 3.2 1.3 1.5 2.2 3.3 2.7 5.5L80.6 60.5z" fill="#8D191B"/>
      <path d="M107.8 50.5l0 7.6 -11.2-0.1v3.7l11.6 0.1 0 7.6 -11.6-0.1 0 4 11.6 0.1 -0.1 7.6c-3.2-0.1-6.4-0.1-9.6-0.1 -3.1 0-6.3 0-9.5 0L89 50.4c3.1 0 6.3 0 9.4 0C101.5 50.4 104.7 50.5 107.8 50.5z" fill="#8D191B"/>
      <path d="M27.2 37.6c0-0.6-0.1-1.1-0.4-1.7 -0.4-0.8-0.9-1.4-1.6-1.8 -0.7-0.4-1.4-0.7-2.2-0.8 -0.8-0.2-1.7-0.2-2.6-0.2 -0.9 0-1.8 0-2.6 0.1 0.1 2.4 0.2 4.7 0.2 7 1.9 0 4.7-0.1 8.3-0.1 0.2-0.3 0.3-0.5 0.4-0.8C27.1 38.7 27.2 38.1 27.2 37.6zM23.6 37.8c-0.1 0.2-0.2 0.4-0.4 0.6 -0.2 0.2-0.4 0.4-0.7 0.5 -0.3 0.2-0.6 0.3-0.9 0.3l-0.1-2.6c0.6 0 1 0.1 1.3 0.2 0.3 0.1 0.5 0.3 0.6 0.4C23.6 37.5 23.7 37.6 23.6 37.8z" fill="#DA4050"/>
      <path d="M32.8 38.8v-1.7l5.3 0.1 0-3.6c-1.5 0-3 0-4.4 0 -1.5 0-2.9 0-4.4 0l0 6.4c2.7 0 5.7-0.1 9-0.1l0-1L32.8 38.8z" fill="#DA4050"/>
      <path d="M42.7 33.8l-1.8 6c2.3 0 4.7 0 7.2-0.1l-1.9-6L42.7 33.8z" fill="#DA4050"/>
      <path d="M54.3 36.9c0.3-0.2 0.5-0.3 0.9-0.4 0.1 0 0.3 0 0.4 0 0.2 0 0.3 0.1 0.4 0.1 0.3 0.1 0.5 0.3 0.8 0.6 0.2 0.3 0.4 0.6 0.5 1l3.5-0.8c-0.2-1-0.6-1.9-1.3-2.6 -0.6-0.7-1.3-1.2-2.1-1.5 -0.8-0.3-1.7-0.5-2.7-0.3 -0.5 0.1-0.9 0.2-1.4 0.4 -0.4 0.2-0.9 0.4-1.2 0.7 -0.8 0.6-1.4 1.4-1.9 2.5 -0.4 0.9-0.6 1.9-0.7 3.1 1.2 0 2.4 0 3.6 0 0.1-0.5 0.2-1 0.3-1.4C53.6 37.7 53.9 37.2 54.3 36.9z" fill="#DA4050"/>
      <path d="M71.8 36.9v-3.6H61v3.6h3.6v2.8c1.2 0 2.4 0 3.6 0v-2.8H71.8z" fill="#DA4050"/>
      <path d="M72.5 33.6l0.1 6.1c1.2 0 2.4 0 3.6 0l-0.1-6.2L72.5 33.6z" fill="#DA4050"/>
      <path d="M88.2 38.4c0-0.4-0.1-0.8-0.1-1.2 -0.1-0.4-0.2-0.8-0.4-1.2 -0.2-0.4-0.4-0.8-0.7-1.2 -0.3-0.4-0.6-0.7-1-0.9 -0.4-0.3-0.9-0.5-1.4-0.6s-1.1-0.2-1.8-0.2c-1.2 0-2.2 0.2-3 0.6 -0.8 0.4-1.4 0.9-1.9 1.6 -0.5 0.7-0.8 1.4-1 2.3 -0.1 0.7-0.2 1.4-0.3 2.2 1.2 0 2.4 0 3.6 0 0-0.4 0-0.7 0.1-1 0-0.5 0.2-0.9 0.3-1.2 0.2-0.3 0.4-0.6 0.7-0.7 0.3-0.2 0.8-0.3 1.4-0.3 0.5 0 0.9 0.1 1.1 0.3 0.3 0.2 0.5 0.4 0.6 0.7 0.1 0.3 0.2 0.7 0.2 1.1 0 0.4 0 0.8 0 1.2 1.2 0 2.4 0 3.6 0.1 0-0.1 0-0.3 0-0.4C88.2 39.2 88.2 38.8 88.2 38.4z" fill="#DA4050"/>
      <path d="M96 33.2l-0.2 6.6 -3.2-6H89.1l0 6.2c3.7 0.1 7.1 0.2 10.3 0.4l0.2-7.1L96 33.2z" fill="#DA4050"/>
      <path d="M108.9 39.9c-0.4-0.3-0.9-0.6-1.5-0.8 -0.6-0.2-1.2-0.3-1.9-0.4 -0.2 0-0.5 0-0.7-0.1 -0.2 0-0.4 0-0.5-0.1 -0.2 0-0.3-0.1-0.4-0.2 -0.1-0.1-0.2-0.2-0.2-0.3 0-0.1-0.1-0.2-0.1-0.3 0-0.2 0-0.3 0.1-0.5 0-0.1 0.1-0.1 0.1-0.2 0-0.1 0.1-0.1 0.2-0.2 0.1-0.1 0.3-0.2 0.5-0.3 0.2-0.1 0.4-0.2 0.7-0.2 0.3 0 0.5 0 0.7 0 0.3 0 0.5 0.1 0.7 0.3 0.1 0.1 0.2 0.3 0.2 0.6 0 0.2 0 0.4 0 0.5l3.6 0.3c0-0.4 0-0.8 0-1.2 -0.1-0.5-0.2-0.9-0.3-1.4 -0.2-0.4-0.4-0.8-0.8-1.2 -0.3-0.3-0.8-0.6-1.3-0.9 -0.5-0.2-1.1-0.4-1.7-0.5 -0.4 0-0.9 0-1.4 0 -0.7 0.1-1.4 0.2-1.9 0.5 -0.6 0.3-1.1 0.6-1.5 1 -0.5 0.5-0.9 1.1-1.1 1.7 -0.2 0.6-0.3 1.3-0.3 1.9 0.1 0.5 0.2 1 0.4 1.4 0.1 0.3 0.3 0.6 0.5 0.8 3.4 0.2 6.4 0.4 8.8 0.6C109.6 40.6 109.3 40.3 108.9 39.9z" fill="#DA4050"/>
      <path d="M37.7 59.1c0-1.2-0.2-2.4-0.8-3.6 -0.8-1.7-1.9-3-3.3-3.9 -1.4-0.9-3-1.5-4.7-1.8 -1.8-0.3-3.6-0.5-5.5-0.4 -1.9 0-3.7 0.1-5.5 0.1 0.1 3.5 0.3 7 0.4 10.5 2 0.5 4.6 1.2 7.7 1.8l-0.1-4.8c1.2 0.1 2.2 0.3 2.8 0.5 0.7 0.3 1.1 0.6 1.3 0.9 0.2 0.4 0.3 0.7 0.1 1.2 -0.1 0.4-0.4 0.8-0.8 1.2 -0.4 0.4-0.9 0.8-1.5 1.1 -0.2 0.1-0.3 0.2-0.5 0.2 2.7 0.6 5.7 1.2 9.1 1.7 0.3-0.4 0.5-0.9 0.7-1.4C37.5 61.4 37.7 60.3 37.7 59.1z" fill="#DA4050"/>
      <path d="M49.6 51l-4.3 14.2c2.5 0.3 5.1 0.6 7.8 0.8l0.3-0.9 0.3 0.9c2.7 0.2 5.5 0.4 8.3 0.5l-4.9-15.8L49.6 51z" fill="#DA4050"/>
      <path d="M72.3 60.6c0.5-1.3 1.2-2.3 2-2.9 0.5-0.5 1.1-0.7 1.8-0.8 0.3-0.1 0.6-0.1 1 0 0.3 0 0.6 0.1 1 0.2 0.6 0.3 1.1 0.7 1.6 1.2 0.5 0.6 0.8 1.3 1 2.1l7.4-1.7c-0.5-2.2-1.4-4-2.7-5.5 -1.3-1.5-2.8-2.6-4.5-3.2 -1.8-0.7-3.7-1-5.7-0.7 -1 0.1-1.9 0.4-2.9 0.8 -0.9 0.4-1.8 0.9-2.7 1.6 -1.6 1.3-3 3.1-4 5.4 -1.1 2.3-1.6 5.2-1.6 8.6 0 0.3 0 0.7 0 1 2.5 0.1 5 0.1 7.6 0.1 0-0.3 0-0.7 0-1.1C71.6 63.6 71.8 61.9 72.3 60.6z" fill="#DA4050"/>
      <path d="M96.6 61.7v-3.7l11.2 0.1 0-7.6c-3.2 0-6.3 0-9.4-0.1 -3.1 0-6.3 0-9.4 0l0 15.2c6.3-0.8 12.6-2 18.8-3.8L96.6 61.7z" fill="#DA4050"/>
      <path d="M19.6 34.5c1.5-0.2 3.7 0 4.9 0.9 0.4 0.3 0.8-0.4 0.4-0.7 -1.4-1-3.8-1.3-5.5-1C18.9 33.8 19.1 34.6 19.6 34.5L19.6 34.5z" fill="#FFF"/>
      <path d="M25.5 36c0.5 0 0.5-0.8 0-0.8S25 36 25.5 36L25.5 36z" fill="#FFF"/>
      <path d="M30.1 40.2c0 0.7 0 1.5 0 2.2 0 0.5 0.8 0.5 0.8 0 0-0.7 0-1.5 0-2.2C30.9 39.7 30.1 39.7 30.1 40.2L30.1 40.2z" fill="#FFF"/>
      <path d="M30.5 39.4c0.5 0 0.5-0.8 0-0.8C30 38.6 30 39.4 30.5 39.4L30.5 39.4z" fill="#FFF"/>
      <path d="M45.7 36.3c0.2 0.9 0.5 1.9 0.6 2.8 0.1 0.5 0.9 0.3 0.8-0.2 -0.2-0.9-0.4-1.9-0.6-2.8C46.4 35.5 45.6 35.7 45.7 36.3L45.7 36.3z" fill="#FFF"/>
      <path d="M47 40.8c0.5 0 0.5-0.8 0-0.8C46.5 40 46.5 40.8 47 40.8L47 40.8z" fill="#FFF"/>
      <path d="M52 43.8c0.2 2.6 3.8 4.3 5.5 1.9 0.3-0.4-0.4-0.8-0.7-0.4 -1.2 1.7-3.8 0.3-4-1.5C52.7 43.2 51.9 43.2 52 43.8L52 43.8z" fill="#FFF"/>
      <path d="M52.1 42.7c0.5 0 0.5-0.8 0-0.8S51.6 42.7 52.1 42.7L52.1 42.7z" fill="#FFF"/>
      <path d="M61.5 34c0 0.7 0 1.4 0 2.2 0 0.5 0.8 0.5 0.8 0 0-0.7 0-1.4 0-2.2C62.3 33.5 61.5 33.5 61.5 34L61.5 34z" fill="#FFF"/>
      <path d="M67.1 37.3c0 0.6 0 1.3 0 1.9 0 0.5 0.8 0.5 0.8 0 0-0.6 0-1.3 0-1.9C67.9 36.8 67.1 36.8 67.1 37.3L67.1 37.3z" fill="#FFF"/>
      <path d="M67.5 41.1c0.5 0 0.5-0.8 0-0.8S67 41.1 67.5 41.1L67.5 41.1z" fill="#FFF"/>
      <path d="M74.8 34.8c0 1.5 0 3 0 4.4 0 0.5 0.8 0.5 0.8 0 0-1.5 0-3 0-4.4C75.6 34.3 74.8 34.3 74.8 34.8L74.8 34.8z" fill="#FFF"/>
      <path d="M75.3 41c0.5 0 0.5-0.8 0-0.8C74.8 40.2 74.8 41 75.3 41L75.3 41z" fill="#FFF"/>
      <path d="M79.1 40.1c0 1.2-0.3 2.4 0.3 3.6 0.2 0.5 0.9 0.1 0.7-0.4 -0.5-0.9-0.2-2.1-0.2-3.2C79.9 39.6 79.1 39.6 79.1 40.1L79.1 40.1z" fill="#FFF"/>
      <path d="M80.5 44.6c0.5 0 0.5-0.8 0-0.8C80 43.8 80 44.6 80.5 44.6L80.5 44.6z" fill="#FFF"/>
      <path d="M84.6 34.9c0.8 0.1 1.5 1 1.7 1.7 0.1 0.5 0.9 0.3 0.8-0.2 -0.2-1-1.2-2.2-2.2-2.3C84.3 34 84.1 34.8 84.6 34.9L84.6 34.9z" fill="#FFF"/>
      <path d="M97.9 34.5c0 1.6 0 3.3 0 4.9 0 0.5 0.8 0.5 0.8 0 0-1.6 0-3.3 0-4.9C98.7 34 97.9 34 97.9 34.5L97.9 34.5z" fill="#FFF"/>
      <path d="M98.4 41.9c0.5 0 0.5-0.8 0-0.8S97.9 41.9 98.4 41.9L98.4 41.9z" fill="#FFF"/>
      <path d="M104.7 35.6c0.5-0.1 1.1-0.1 1.6 0 0.6 0.1 0.8 0.7 0.8 1.3 0 0.5 0.8 0.5 0.8 0 0-0.8-0.3-1.6-1.1-1.9 -0.7-0.3-1.6-0.2-2.4-0.1C104 34.9 104.2 35.7 104.7 35.6L104.7 35.6z" fill="#FFF"/>
      <path d="M103.1 36c0.5 0 0.5-0.8 0-0.8S102.6 36 103.1 36L103.1 36z" fill="#FFF"/>
      <path d="M102.7 43.8c0.1 0.4 0.1 0.8 0.4 1.1 0.3 0.4 0.7 0.5 1.2 0.6 0.5 0 0.5-0.8 0-0.8 -0.6 0-0.7-0.6-0.8-1.1 0-0.2-0.3-0.3-0.5-0.3C102.8 43.4 102.7 43.6 102.7 43.8L102.7 43.8z" fill="#FFF"/>
      <path d="M105.3 45.5c0.5 0 0.5-0.8 0-0.8S104.8 45.5 105.3 45.5L105.3 45.5z" fill="#FFF"/>
      <path d="M23 51.8c3-0.5 6.1 0.1 8.4 2.1 0.8 0.7 1.9-0.5 1.1-1.1 -2.8-2.4-6.4-3.1-10-2.5C21.5 50.4 21.9 51.9 23 51.8L23 51.8z" fill="#FFF"/>
      <path d="M33.5 55.3c1 0 1-1.6 0-1.6C32.4 53.7 32.4 55.3 33.5 55.3L33.5 55.3z" fill="#FFF"/>
      <path d="M54.9 52.7c0.4 2 1.5 3.7 1.9 5.6 0.2 1 1.8 0.6 1.6-0.4 -0.4-2-1.5-3.7-1.9-5.6C56.3 51.3 54.7 51.7 54.9 52.7L54.9 52.7z" fill="#FFF"/>
      <path d="M58.3 60.8c1 0 1-1.6 0-1.6S57.3 60.8 58.3 60.8L58.3 60.8z" fill="#FFF"/>
      <path d="M69.4 71.8c0.6 1.9 1.2 3.6 2.8 4.8 1.8 1.3 4.5 0.8 6.4 0 1-0.4 0.1-1.8-0.8-1.4 -1.7 0.8-3.8 0.9-5.2-0.4 -0.9-0.8-1.2-2.3-1.6-3.4C70.7 70.4 69.1 70.8 69.4 71.8L69.4 71.8z" fill="#FFF"/>
      <path d="M69.9 70.8c1 0 1-1.6 0-1.6C68.8 69.2 68.8 70.8 69.9 70.8L69.9 70.8z" fill="#FFF"/>
      <path d="M90.7 66.6c0 1.8 0 3.6 0 5.4 0 1 1.6 1 1.6 0 0-1.8 0-3.6 0-5.4C92.3 65.6 90.7 65.6 90.7 66.6L90.7 66.6z" fill="#FFF"/>
      <path d="M91.4 65.5c1 0 1-1.6 0-1.6C90.4 63.9 90.4 65.5 91.4 65.5L91.4 65.5z" fill="#FFF"/>
      <path d="M18.7 41.2c0 0.7 0 1.4 0 2.1 0 0.5 0.8 0.5 0.8 0 0-0.7-0.1-1.4 0-2.1C19.5 40.7 18.7 40.7 18.7 41.2L18.7 41.2z" fill="#FFF"/>
      <path d="M19.3 62.6c0.2 2.5-0.2 5.1 0.2 7.6 0.2 1 1.7 0.6 1.6-0.4 -0.4-2.4 0.1-4.8-0.1-7.2C20.9 61.6 19.2 61.6 19.3 62.6L19.3 62.6z" fill="#FFF"/>
      <path d="M119.4 130.6c-0.3 5.9-5.4 6.2-9.9 6.2 -4 0-8 0-12.1 0 -2.4 0-3.7 1.2-5.8 2.4 -2.9 1.9-5.9 3.7-8.8 5.6 0.5 0 1.1 0 1.6 0 -3.4-2.2-6.7-4.4-10.1-6.6 -1.7-1.1-2.5-1.4-4.5-1.4 -8.4 0-16.8 0-25.1 0 -9.3 0-18.6 0-27.8 0 -2.1 0-4.4 0.2-6.4-0.3 -3.4-0.9-4.1-4.3-4.1-7.3 0-34.6 0-69.3 0-103.9 0-4.3 0-8.6 0-12.9 0-7.1 7.1-6.4 11.9-6.4 18.5 0 37 0 55.5 0 13.2 0 26.3 0 39.5 0 7.4 0 6.2 8.4 6.2 13.3 0 7.7 0 15.5 0 23.2C119.4 71.8 119.4 101.2 119.4 130.6c0 2.1 3.2 2.1 3.2 0 0-32.3 0-64.6 0-96.9 0-6.3 0-12.6 0-18.9 0-0.9 0-1.8 0-2.8 0-5.2-4.3-9.4-9.5-9.4 -14 0-28 0-41.9 0 -18.1 0-36.1 0-54.2 0 -1.5 0-2.9 0-4.4 0 -4.7 0-9.2 3.7-9.5 8.5C3 14.8 3.1 18.4 3.1 22c0 35.2 0 70.4 0 105.6 0 1 0 2 0 3 0 5.2 4.3 9.4 9.5 9.4 6.5 0 13 0 19.5 0 10.1 0 20.2 0 30.3 0 2.9 0 5.8 0 8.6 0 0.2 0 0.5 0 0.7 0 0.6 0-1.1-0.5-0.4 0 1.8 1.2 3.6 2.4 5.4 3.5 2.1 1.4 4.1 2.7 6.2 4.1 0.5 0.3 1.2 0.3 1.6 0 3.1-2 6.2-3.9 9.3-5.9 0.8-0.5 1.6-1 2.3-1.5 0.9-0.6 0.6-0.2 0-0.2 1.6 0 3.1 0 4.7 0 4 0 8 0 12.1 0 5.4 0 9.4-4.1 9.7-9.4C122.8 128.5 119.6 128.5 119.4 130.6z" fill="#AD1E36"/>
</svg>